<svg width="30" height="30" viewBox="0 0 30 30" fill="none" xmlns="http://www.w3.org/2000/svg">
<path d="M25 16.25V13.75C25 13.4115 24.8763 13.1185 24.6289 12.8711C24.3815 12.6237 24.0885 12.5 23.75 12.5H13.9453L17.6367 8.80859C17.8841 8.5612 18.0078 8.26823 18.0078 7.92969C18.0078 7.59115 17.8841 7.29818 17.6367 7.05078L15.8594 5.27344C15.625 5.03906 15.332 4.92188 14.9805 4.92188C14.6289 4.92188 14.3359 5.03906 14.1016 5.27344L7.03125 12.3438L5.25391 14.1211C5.01953 14.3555 4.90234 14.6484 4.90234 15C4.90234 15.3516 5.01953 15.6445 5.25391 15.8789L7.03125 17.6562L14.1016 24.7266C14.3359 24.9609 14.6289 25.0781 14.9805 25.0781C15.332 25.0781 15.625 24.9609 15.8594 24.7266L17.6367 22.9492C17.8711 22.7148 17.9883 22.4219 17.9883 22.0703C17.9883 21.7188 17.8711 21.4258 17.6367 21.1914L13.9453 17.5H23.75C24.0885 17.5 24.3815 17.3763 24.6289 17.1289C24.8763 16.8815 25 16.5885 25 16.25ZM30 15C30 17.7214 29.3294 20.2311 27.9883 22.5293C26.6471 24.8275 24.8275 26.6471 22.5293 27.9883C20.2311 29.3294 17.7214 30 15 30C12.2786 30 9.76888 29.3294 7.4707 27.9883C5.17253 26.6471 3.35286 24.8275 2.01172 22.5293C0.670573 20.2311 0 17.7214 0 15C0 12.2786 0.670573 9.76888 2.01172 7.4707C3.35286 5.17253 5.17253 3.35286 7.4707 2.01172C9.76888 0.670573 12.2786 0 15 0C17.7214 0 20.2311 0.670573 22.5293 2.01172C24.8275 3.35286 26.6471 5.17253 27.9883 7.4707C29.3294 9.76888 30 12.2786 30 15Z" fill="#FFBB55"/>
</svg>
