<svg width="30" height="30" viewBox="0 0 30 30" fill="none" xmlns="http://www.w3.org/2000/svg">
<path d="M25.0977 15C25.0977 14.6484 24.9805 14.3555 24.7461 14.1211L22.9688 12.3438L15.8984 5.27344C15.6641 5.03906 15.3711 4.92188 15.0195 4.92188C14.668 4.92188 14.375 5.03906 14.1406 5.27344L12.3633 7.05078C12.1289 7.28516 12.0117 7.57812 12.0117 7.92969C12.0117 8.28125 12.1289 8.57422 12.3633 8.80859L16.0547 12.5H6.25C5.91146 12.5 5.61849 12.6237 5.37109 12.8711C5.1237 13.1185 5 13.4115 5 13.75V16.25C5 16.5885 5.1237 16.8815 5.37109 17.1289C5.61849 17.3763 5.91146 17.5 6.25 17.5H16.0547L12.3633 21.1914C12.1159 21.4388 11.9922 21.7318 11.9922 22.0703C11.9922 22.4089 12.1159 22.7018 12.3633 22.9492L14.1406 24.7266C14.375 24.9609 14.668 25.0781 15.0195 25.0781C15.3711 25.0781 15.6641 24.9609 15.8984 24.7266L22.9688 17.6562L24.7461 15.8789C24.9805 15.6445 25.0977 15.3516 25.0977 15ZM30 15C30 17.7214 29.3294 20.2311 27.9883 22.5293C26.6471 24.8275 24.8275 26.6471 22.5293 27.9883C20.2311 29.3294 17.7214 30 15 30C12.2786 30 9.76888 29.3294 7.4707 27.9883C5.17253 26.6471 3.35286 24.8275 2.01172 22.5293C0.670573 20.2311 0 17.7214 0 15C0 12.2786 0.670573 9.76888 2.01172 7.4707C3.35286 5.17253 5.17253 3.35286 7.4707 2.01172C9.76888 0.670573 12.2786 0 15 0C17.7214 0 20.2311 0.670573 22.5293 2.01172C24.8275 3.35286 26.6471 5.17253 27.9883 7.4707C29.3294 9.76888 30 12.2786 30 15Z" fill="#FFBB55"/>
</svg>
